<svg viewBox="0 0 14 14" xmlns="http://www.w3.org/2000/svg"><path d="m12.4375 4h-.1875v-1.125c0-1.05-2.325-1.875-5.25-1.875s-5.25.825-5.25 1.875v1.125h-.1875c-.3105469 0-.5625.25172-.5625.5625v1.875c0 .31055.2519531.5625.5625.5625h.1875v3.75c0 .41414.3358594.75.75.75v.75c0 .41414.3358594.75.75.75h.75c.4141406 0 .75-.33586.75-.75v-.75h4.5v.75c0 .41414.3358594.75.75.75h.75c.414141 0 .75-.33586.75-.75v-.75h.15c.375 0 .6-.3.6-.6v-3.9h.1875c.310547 0 .5625-.25195.5625-.5625v-1.875c0-.31078-.251953-.5625-.5625-.5625zm-7.6875-1.3125c0-.10359.083906-.1875.1875-.1875h4.125c.1035938 0 .1875.0839.1875.1875v.375c0 .10359-.083906.1875-.1875.1875h-4.125c-.1035937 0-.1875-.0839-.1875-.1875zm-1.125 7.6875c-.4141406 0-.75-.33586-.75-.75s.3358594-.75.75-.75.75.33586.75.75-.3358594.75-.75.75zm3-2.625h-2.625c-.4141406 0-.75-.33586-.75-.75v-2.25c0-.41414.3358594-.75.75-.75h2.625zm.75 0v-3.75h2.625c.414141 0 .75.33586.75.75v2.25c0 .41414-.335859.75-.75.75zm3 2.625c-.4141406 0-.75-.33586-.75-.75s.3358594-.75.75-.75c.414141 0 .75.33586.75.75s-.335859.75-.75.75z"/></svg>